<svg width="120.5375px" height="100.39999999999999px" xmlns="http://www.w3.org/2000/svg" viewBox="189.73125 24.800000000000004 120.5375 100.39999999999999" style="background: rgb(40, 41, 47);" preserveAspectRatio="xMidYMid"><defs><linearGradient id="editing-glowing-gradient" x1="0.49999999999999994" x2="0.5" y1="0" y2="1"><stop offset="0" stop-color="#0a0a0a"></stop><stop offset="1" stop-color="#a50000"></stop></linearGradient><filter id="editing-glowing" x="-100%" y="-100%" width="300%" height="300%"><feGaussianBlur in="SourceGraphic" result="blur" stdDeviation="1"></feGaussianBlur><feMerge><feMergeNode in="blur"></feMergeNode><feMergeNode in="SourceGraphic"></feMergeNode></feMerge></filter></defs><g filter="url(#editing-glowing)"><g transform="translate(214.43882690370083, 91.33000183105469)"><path d="M29.11-32.21L35.62-32.21L20.37-1.15L20.37-1.15Q20.01-0.43 19.31 0.01L19.31 0.01L19.31 0.01Q18.60 0.45 17.74 0.45L17.74 0.45L17.74 0.45Q16.91 0.45 16.21 0.01L16.21 0.01L16.21 0.01Q15.50-0.43 15.12-1.15L15.12-1.15L-0.11-32.21L6.42-32.21L17.74-9.01L29.11-32.21ZM70.35-16.10L70.35-2.94L70.35-2.94Q70.35-2.31 70.12-1.77L70.12-1.77L70.12-1.77Q69.90-1.24 69.51-0.84L69.51-0.84L69.51-0.84Q69.11-0.45 68.57-0.22L68.57-0.22L68.57-0.22Q68.03 0 67.41 0L67.41 0L46.34 0L46.34 0Q45.53 0 44.60-0.19L44.60-0.19L44.60-0.19Q43.66-0.38 42.75-0.79L42.75-0.79L42.75-0.79Q41.84-1.19 41.01-1.83L41.01-1.83L41.01-1.83Q40.18-2.47 39.54-3.38L39.54-3.38L39.54-3.38Q38.90-4.29 38.52-5.49L38.52-5.49L38.52-5.49Q38.14-6.69 38.14-8.20L38.14-8.20L38.14-24.01L38.14-24.01Q38.14-24.82 38.33-25.75L38.33-25.75L38.33-25.75Q38.52-26.68 38.92-27.59L38.92-27.59L38.92-27.59Q39.33-28.50 39.98-29.33L39.98-29.33L39.98-29.33Q40.63-30.17 41.54-30.81L41.54-30.81L41.54-30.81Q42.45-31.45 43.64-31.83L43.64-31.83L43.64-31.83Q44.83-32.21 46.34-32.21L46.34-32.21L70.08-32.21L70.08-26.37L46.34-26.37L46.34-26.37Q45.19-26.37 44.58-25.76L44.58-25.76L44.58-25.76Q43.98-25.16 43.98-23.97L43.98-23.97L43.98-8.20L43.98-8.20Q43.98-7.08 44.60-6.46L44.60-6.46L44.60-6.46Q45.21-5.84 46.34-5.84L46.34-5.84L64.51-5.84L64.51-13.16L48.96-13.16L48.96-19.05L67.41-19.05L67.41-19.05Q68.03-19.05 68.57-18.81L68.57-18.81L68.57-18.81Q69.11-18.58 69.51-18.17L69.51-18.17L69.51-18.17Q69.90-17.77 70.12-17.24L70.12-17.24L70.12-17.24Q70.35-16.71 70.35-16.10L70.35-16.10Z" fill="url(#editing-glowing-gradient)"></path></g></g><style>text {
  font-size: 64px;
  font-family: Arial Black;
  dominant-baseline: central;
  text-anchor: middle;
}</style></svg>